<svg width="214" height="56" viewBox="0 0 214 56" fill="none" xmlns="http://www.w3.org/2000/svg">
<path d="M4.72747 29.1757C3.61352 29.1757 2.71693 28.8502 2.0377 28.1991C1.38564 27.5209 1.0596 26.6121 1.0596 25.4728V3.70291C1.0596 2.59068 1.38564 1.69547 2.0377 1.01728C2.71693 0.339094 3.61352 0 4.72747 0C5.84141 0 6.72441 0.339094 7.37648 1.01728C8.05571 1.66834 8.39533 2.56355 8.39533 3.70291V11.3936H10.5553L18.7876 1.4242C19.5483 0.501859 20.4449 0.0406908 21.4774 0.0406908C22.3196 0.0406908 23.0532 0.352658 23.6781 0.976592C24.3301 1.5734 24.6562 2.27871 24.6562 3.09254C24.6562 3.90637 24.3573 4.65238 23.7596 5.33056L17.3205 12.8992C18.3257 13.3603 19.1001 13.8079 19.6434 14.242C20.1868 14.676 20.6759 15.2186 21.1106 15.8696C21.5453 16.4936 22.1974 17.5651 23.0668 19.0842L25.5935 23.601C25.9739 24.252 26.1641 24.9302 26.1641 25.6355C26.1641 26.6121 25.8109 27.4395 25.1045 28.1177C24.3981 28.7959 23.583 29.135 22.6592 29.135C21.3551 29.135 20.3227 28.4704 19.5619 27.1411L15.8126 20.305C15.2148 19.1927 14.5899 18.4196 13.9379 17.9856C13.2858 17.5515 12.2805 17.3345 10.9221 17.3345H8.39533V25.4728C8.39533 26.585 8.05571 27.4802 7.37648 28.1584C6.72441 28.8366 5.84141 29.1757 4.72747 29.1757Z" fill="#1B315F"/>
<path d="M42.2345 9.92869C42.2345 15.1101 41.5961 19.0978 40.3191 21.8919C39.0421 24.6861 37.181 26.7749 34.7358 28.1584C33.8664 28.6738 33.0377 28.9315 32.2498 28.9315C31.3532 28.9315 30.6196 28.6467 30.0491 28.077C29.4785 27.4802 29.1933 26.7613 29.1933 25.9204C29.1933 25.2422 29.397 24.5911 29.8046 23.9672C30.2121 23.3161 30.8234 22.7465 31.6385 22.2582C33.8936 20.739 35.0211 17.0632 35.0211 11.2308V3.70291C35.0211 2.59068 35.3199 1.73616 35.9177 1.13936C36.5154 0.542551 37.3712 0.244147 38.4852 0.244147H53.1566C54.2706 0.244147 55.1264 0.542551 55.7241 1.13936C56.349 1.73616 56.6615 2.59068 56.6615 3.70291V25.4728C56.6615 26.585 56.3218 27.4802 55.6426 28.1584C54.9634 28.8366 54.0668 29.1757 52.9528 29.1757C51.8389 29.1757 50.9423 28.8502 50.2631 28.1991C49.611 27.5209 49.285 26.6121 49.285 25.4728V6.1037H42.2345V9.92869Z" fill="#1B315F"/>
<path d="M79.805 2.3601C80.4299 1.46489 81.0548 0.854518 81.6796 0.528988C82.3317 0.176329 83.3098 0 84.6139 0C85.7279 0 86.5837 0.298403 87.1814 0.89521C87.7792 1.46489 88.078 2.30584 88.078 3.41807V25.4728C88.078 26.585 87.7384 27.4802 87.0592 28.1584C86.4071 28.8366 85.5241 29.1757 84.4102 29.1757C83.2962 29.1757 82.3996 28.8502 81.7204 28.1991C81.0683 27.5209 80.7423 26.6121 80.7423 25.4728V10.9053L70.7576 25.9204C70.1055 26.8427 69.5078 27.548 68.9644 28.0363C68.4482 28.4975 67.9048 28.7959 67.3342 28.9315C66.7908 29.0943 66.1116 29.1757 65.2965 29.1757C64.1826 29.1757 63.3268 28.8909 62.729 28.3212C62.1313 27.7244 61.8324 26.8698 61.8324 25.7576V3.70291C61.8324 2.59068 62.1585 1.69547 62.8105 1.01728C63.4898 0.339094 64.3864 0 65.5003 0C66.6143 0 67.4973 0.339094 68.1493 1.01728C68.8286 1.66834 69.1682 2.56355 69.1682 3.70291V18.2297L79.805 2.3601Z" fill="#1B315F"/>
<path d="M116.054 0.0406908C117.168 0.0406908 118.051 0.379785 118.703 1.05797C119.382 1.70904 119.722 2.59068 119.722 3.70291V25.4728C119.722 26.585 119.382 27.4802 118.703 28.1584C118.051 28.8366 117.168 29.1757 116.054 29.1757C114.94 29.1757 114.044 28.8502 113.364 28.1991C112.712 27.5209 112.386 26.6121 112.386 25.4728V17.3345H100.649V25.4728C100.649 26.585 100.309 27.4802 99.6302 28.1584C98.9781 28.8366 98.0951 29.1757 96.9812 29.1757C95.8673 29.1757 94.9707 28.8502 94.2914 28.1991C93.6394 27.5209 93.3133 26.6121 93.3133 25.4728V3.70291C93.3133 2.59068 93.6394 1.70904 94.2914 1.05797C94.9707 0.379785 95.8673 0.0406908 96.9812 0.0406908C98.0951 0.0406908 98.9781 0.379785 99.6302 1.05797C100.309 1.70904 100.649 2.59068 100.649 3.70291V11.3936H112.386V3.70291C112.386 2.59068 112.712 1.70904 113.364 1.05797C114.044 0.379785 114.94 0.0406908 116.054 0.0406908Z" fill="#1B315F"/>
<path d="M142.926 2.3601C143.551 1.46489 144.176 0.854518 144.801 0.528988C145.453 0.176329 146.431 0 147.735 0C148.849 0 149.705 0.298403 150.302 0.89521C150.9 1.46489 151.199 2.30584 151.199 3.41807V25.4728C151.199 26.585 150.859 27.4802 150.18 28.1584C149.528 28.8366 148.645 29.1757 147.531 29.1757C146.417 29.1757 145.521 28.8502 144.841 28.1991C144.189 27.5209 143.863 26.6121 143.863 25.4728V10.9053L133.879 25.9204C133.226 26.8427 132.629 27.548 132.085 28.0363C131.569 28.4975 131.026 28.7959 130.455 28.9315C129.912 29.0943 129.233 29.1757 128.418 29.1757C127.304 29.1757 126.448 28.8909 125.85 28.3212C125.252 27.7244 124.953 26.8698 124.953 25.7576V3.70291C124.953 2.59068 125.279 1.69547 125.932 1.01728C126.611 0.339094 127.507 0 128.621 0C129.735 0 130.618 0.339094 131.27 1.01728C131.95 1.66834 132.289 2.56355 132.289 3.70291V18.2297L142.926 2.3601Z" fill="#1B315F"/>
<path d="M160.102 29.1757C158.988 29.1757 158.092 28.8502 157.412 28.1991C156.76 27.5209 156.434 26.6121 156.434 25.4728V3.70291C156.434 2.59068 156.76 1.69547 157.412 1.01728C158.092 0.339094 158.988 0 160.102 0C161.216 0 162.099 0.339094 162.751 1.01728C163.43 1.66834 163.77 2.56355 163.77 3.70291V11.3936H165.93L174.162 1.4242C174.923 0.501859 175.82 0.0406908 176.852 0.0406908C177.694 0.0406908 178.428 0.352658 179.053 0.976592C179.705 1.5734 180.031 2.27871 180.031 3.09254C180.031 3.90637 179.732 4.65238 179.134 5.33056L172.695 12.8992C173.7 13.3603 174.475 13.8079 175.018 14.242C175.562 14.676 176.051 15.2186 176.485 15.8696C176.92 16.4936 177.572 17.5651 178.441 19.0842L180.968 23.601C181.349 24.252 181.539 24.9302 181.539 25.6355C181.539 26.6121 181.186 27.4395 180.479 28.1177C179.773 28.7959 178.958 29.135 178.034 29.135C176.73 29.135 175.697 28.4704 174.937 27.1411L171.187 20.305C170.59 19.1927 169.965 18.4196 169.313 17.9856C168.661 17.5515 167.655 17.3345 166.297 17.3345H163.77V25.4728C163.77 26.585 163.43 27.4802 162.751 28.1584C162.099 28.8366 161.216 29.1757 160.102 29.1757Z" fill="#1B315F"/>
<path d="M213.633 24.3334C213.878 24.8488 214 25.3507 214 25.839C214 26.7342 213.633 27.4938 212.9 28.1177C212.193 28.7417 211.378 29.0536 210.454 29.0536C209.829 29.0536 209.259 28.8909 208.743 28.5653C208.227 28.2398 207.819 27.7515 207.52 27.1004L205.686 22.9906H192.482L190.607 27.1004C190.308 27.7515 189.887 28.2398 189.344 28.5653C188.828 28.8909 188.257 29.0536 187.632 29.0536C186.708 29.0536 185.866 28.7417 185.105 28.1177C184.372 27.4938 184.005 26.7342 184.005 25.839C184.005 25.3507 184.127 24.8488 184.372 24.3334L195.131 2.27871C195.484 1.54627 196 0.990155 196.68 0.61037C197.386 0.203456 198.16 0 199.003 0C199.818 0 200.578 0.203456 201.285 0.61037C201.991 0.990155 202.521 1.54627 202.874 2.27871L213.633 24.3334ZM195.009 17.3752H203.159L199.084 8.30103L195.009 17.3752Z" fill="#1B315F"/>
<path d="M1.28375 55.939C0.889796 55.939 0.577349 55.8237 0.346409 55.5931C0.11547 55.3489 0 55.0234 0 54.6165V42.755C0 42.3752 0.122262 42.07 0.366786 41.8394C0.61131 41.5953 0.923758 41.4732 1.30413 41.4732H10.9221C11.3024 41.4732 11.6081 41.5953 11.839 41.8394C12.0836 42.07 12.2058 42.3752 12.2058 42.755V54.6368C12.2058 55.0302 12.0836 55.3489 11.839 55.5931C11.6081 55.8237 11.3024 55.939 10.9221 55.939C10.5281 55.939 10.2157 55.8237 9.98474 55.5931C9.7538 55.3489 9.63833 55.0302 9.63833 54.6368V43.5688H2.58788V54.6368C2.58788 55.0302 2.46562 55.3489 2.22109 55.5931C1.99015 55.8237 1.67771 55.939 1.28375 55.939Z" fill="#1B315F"/>
<path d="M28.0383 45.3185C28.0383 47.3395 27.9024 49.0214 27.6308 50.3643C27.3726 51.6935 26.9719 52.7718 26.4285 53.5992C25.8987 54.413 25.2127 55.0777 24.3704 55.5931C24.0987 55.7559 23.827 55.8372 23.5553 55.8372C23.2429 55.8372 22.978 55.7287 22.7606 55.5117C22.5569 55.2947 22.455 55.037 22.455 54.7386C22.455 54.508 22.5229 54.2842 22.6588 54.0672C22.7946 53.8501 22.9984 53.6603 23.2701 53.4975C24.0308 53.0906 24.5946 52.2971 24.9614 51.117C25.3281 49.9234 25.5115 48.133 25.5115 45.7458V42.7143C25.5115 42.3209 25.6202 42.0157 25.8376 41.7987C26.0549 41.5817 26.3606 41.4732 26.7545 41.4732H34.3959C34.7899 41.4732 35.0887 41.5817 35.2925 41.7987C35.5099 42.0157 35.6185 42.3209 35.6185 42.7143V54.6368C35.6185 55.0302 35.4963 55.3489 35.2518 55.5931C35.0208 55.8237 34.7152 55.939 34.3348 55.939C33.9408 55.939 33.6284 55.8237 33.3974 55.5931C33.1665 55.3489 33.051 55.0302 33.051 54.6368V43.5688H28.0383V45.3185Z" fill="#1B315F"/>
<path d="M58.7872 56C56.8446 56 55.2891 55.4303 54.1209 54.291C52.9662 53.1516 52.3073 51.585 52.1443 49.5911H49.4749V54.6368C49.4749 55.0302 49.3526 55.3489 49.1081 55.5931C48.8772 55.8237 48.5647 55.939 48.1708 55.939C47.7768 55.939 47.4644 55.8237 47.2334 55.5931C47.0025 55.3489 46.887 55.0302 46.887 54.6368V42.6532C46.887 42.2599 47.0025 41.9479 47.2334 41.7173C47.478 41.4732 47.7904 41.3511 48.1708 41.3511C48.5647 41.3511 48.8772 41.4732 49.1081 41.7173C49.3526 41.9479 49.4749 42.2599 49.4749 42.6532V47.4752H52.1647C52.3684 45.5355 53.0477 44.0232 54.2024 42.9381C55.3571 41.8394 56.8853 41.2901 58.7872 41.2901C60.1728 41.2901 61.3683 41.5885 62.3736 42.1853C63.3788 42.7821 64.1464 43.6298 64.6762 44.7285C65.206 45.8272 65.4709 47.1293 65.4709 48.6349C65.4709 50.1404 65.206 51.4494 64.6762 52.5616C64.1464 53.6602 63.3788 54.508 62.3736 55.1048C61.3683 55.7016 60.1728 56 58.7872 56ZM58.7872 53.9044C60.0913 53.9044 61.0966 53.4568 61.803 52.5616C62.5094 51.6528 62.8626 50.3439 62.8626 48.6349C62.8626 46.9258 62.5094 45.6237 61.803 44.7285C61.1102 43.8333 60.1049 43.3857 58.7872 43.3857C57.4695 43.3857 56.4574 43.8333 55.751 44.7285C55.0582 45.6237 54.7118 46.9258 54.7118 48.6349C54.7118 50.3439 55.0582 51.6528 55.751 52.5616C56.4574 53.4568 57.4695 53.9044 58.7872 53.9044Z" fill="#1B315F"/>
<path d="M82.6893 56C81.3036 56 80.0878 55.7016 79.0418 55.1048C78.0093 54.508 77.2146 53.6535 76.6577 52.5412C76.1007 51.429 75.8222 50.1269 75.8222 48.6349C75.8222 47.1429 76.1007 45.8475 76.6577 44.7488C77.2146 43.6366 78.0093 42.7821 79.0418 42.1853C80.0878 41.5885 81.3036 41.2901 82.6893 41.2901C83.5859 41.2901 84.4281 41.4257 85.216 41.697C86.0039 41.9547 86.7035 42.3345 87.3148 42.8364C87.4915 42.972 87.6137 43.1144 87.6816 43.2636C87.7496 43.4128 87.7835 43.5959 87.7835 43.8129C87.7835 44.1114 87.702 44.3623 87.539 44.5657C87.376 44.7692 87.179 44.8709 86.9481 44.8709C86.6764 44.8709 86.3979 44.776 86.1126 44.5861C85.5285 44.152 84.9851 43.8536 84.4825 43.6909C83.9798 43.5145 83.4228 43.4264 82.8115 43.4264C81.3987 43.4264 80.3255 43.8672 79.592 44.7488C78.872 45.6305 78.512 46.9258 78.512 48.6349C78.512 50.3575 78.872 51.6596 79.592 52.5412C80.3255 53.4229 81.3987 53.8637 82.8115 53.8637C83.3957 53.8637 83.9323 53.7755 84.4213 53.5992C84.9239 53.4229 85.4877 53.1245 86.1126 52.704C86.2485 52.6226 86.3843 52.5548 86.5201 52.5005C86.656 52.4463 86.7986 52.4192 86.9481 52.4192C87.179 52.4192 87.376 52.5209 87.539 52.7243C87.702 52.9278 87.7835 53.1787 87.7835 53.4771C87.7835 53.6806 87.7496 53.8637 87.6816 54.0265C87.6137 54.1757 87.4915 54.3181 87.3148 54.4537C86.7035 54.9556 86.0039 55.3422 85.216 55.6134C84.4281 55.8711 83.5859 56 82.6893 56Z" fill="#1B315F"/>
</svg>
