<svg width="64" height="64" viewBox="0 0 64 64" fill="none" xmlns="http://www.w3.org/2000/svg">
<path d="M0 32C0 14.3269 14.3269 0 32 0H64V32C64 49.6731 49.6731 64 32 64H0V32Z" fill="#2770F1"/>
<rect x="54" y="26" width="12" height="16" rx="6" transform="rotate(90 54 26)" fill="#1EBB92"/>
<path fill-rule="evenodd" clip-rule="evenodd" d="M25.8125 16.1875C25.8125 12.7701 28.5826 10 32 10C35.4174 10 38.1875 12.7701 38.1875 16.1875V25.8125H38.2305C36.5177 27.3242 35.4375 29.5359 35.4375 32C35.4375 34.4641 36.5177 36.6758 38.2305 38.1875H38.1875V47.8125C38.1875 51.2299 35.4174 54 32 54C28.5826 54 25.8125 51.2299 25.8125 47.8125V38.1875H16.1875C12.7701 38.1875 10 35.4174 10 32C10 28.5826 12.7701 25.8125 16.1875 25.8125H25.8125V16.1875Z" fill="white"/>
</svg>
