<svg width="29" height="29" viewBox="0 0 29 29" fill="none" xmlns="http://www.w3.org/2000/svg">
<path fill-rule="evenodd" clip-rule="evenodd" d="M18.9531 22.47C16.9914 23.8669 14.5917 24.6885 12 24.6885C5.37258 24.6885 0 19.3159 0 12.6885C0 6.06106 5.37258 0.688477 12 0.688477C18.6274 0.688477 24 6.06106 24 12.6885C24 15.2801 23.1784 17.6799 21.7815 19.6415L27.5874 25.4475C28.3685 26.2285 28.3685 27.4949 27.5874 28.2759C26.8064 29.0569 25.54 29.0569 24.759 28.2759L18.9531 22.47ZM20 12.6885C20 17.1068 16.4183 20.6885 12 20.6885C7.58172 20.6885 4 17.1068 4 12.6885C4 8.2702 7.58172 4.68848 12 4.68848C16.4183 4.68848 20 8.2702 20 12.6885Z" fill="#2770F1"/>
</svg>
