<svg width="24" height="15" viewBox="0 0 24 15" fill="none" xmlns="http://www.w3.org/2000/svg">
<path d="M7.9076 1.49553C8.2448 1.29417 8.55391 0.996923 8.90985 0.920213C10.2961 0.613376 11.7012 0.632553 13.0968 0.853093C13.79 0.968157 14.0522 1.30376 14.0522 2.05168C14.0616 3.17355 14.0148 4.28584 14.0054 5.40771C14.0054 5.86797 13.996 6.33781 14.0803 6.78848C14.1272 7.03779 14.3145 7.35421 14.5206 7.45969C14.6705 7.5364 15.017 7.3638 15.1856 7.20079C16.1598 6.28987 16.7593 5.11046 17.3681 3.94065C17.6866 3.33656 17.9488 2.70371 18.2017 2.07085C18.3984 1.58183 18.6701 1.3517 19.2134 1.36129C20.4779 1.39006 21.7424 1.34212 23.0069 1.32294C23.878 1.31335 24.234 1.73525 23.8406 2.51193C23.3067 3.56669 22.651 4.56391 22.0047 5.55154C21.4895 6.33781 20.8994 7.05696 20.3748 7.82406C19.9159 8.49527 19.9721 8.8884 20.5247 9.4829C21.4052 10.4322 22.3232 11.3431 23.1755 12.3211C23.4846 12.6759 23.7282 13.1362 23.8968 13.5869C24.1028 14.143 23.8312 14.5649 23.2505 14.5937C21.9578 14.6608 20.6559 14.7087 19.3632 14.68C18.6514 14.6704 18.0612 14.2485 17.5742 13.7403C17.0965 13.2417 16.6469 12.7047 16.1785 12.1869C16.0848 12.0814 15.9818 11.9855 15.8788 11.8801C14.9796 10.9979 14.455 11.5445 14.1834 12.4074C14.0616 12.791 14.0616 13.2225 14.0335 13.6348C13.9773 14.3444 13.7338 14.6224 13.0406 14.6128C12.0758 14.5937 11.083 14.6608 10.1556 14.4594C8.2167 14.0375 6.64308 12.9061 5.37856 11.3719C3.14925 8.66786 1.51942 5.58031 0.13313 2.35851C-0.157241 1.68731 0.0207285 1.38047 0.732608 1.36129C1.80979 1.33253 2.88698 1.32294 3.96416 1.31335C4.54491 1.30376 4.90085 1.59142 5.15375 2.12839C5.80943 3.51874 6.49321 4.89951 7.22382 6.25152C7.43926 6.66383 7.78583 7.01861 8.1324 7.32545C8.59138 7.73776 9.01288 7.61311 9.19085 7.00902C9.49996 5.93509 9.50933 4.84198 9.42502 3.72969C9.40629 3.51874 9.38756 3.31738 9.35009 3.11602C9.20022 2.21468 9.07845 2.09003 7.9919 1.64895C7.9638 1.60101 7.9357 1.54348 7.9076 1.49553Z" fill="white"/>
</svg>
