<svg width="18" height="17" viewBox="0 0 18 17" fill="none" xmlns="http://www.w3.org/2000/svg">
<path d="M7.06403 11.358C8.16158 10.3384 9.22394 9.36213 10.2863 8.37865C11.8341 6.93959 13.389 5.50775 14.9298 4.06146C15.1056 3.90237 15.1971 3.64926 15.3237 3.43955C15.0212 3.25153 14.8172 3.49017 14.6061 3.62757C11.3698 5.73193 8.13343 7.84352 4.90413 9.96235C4.68603 10.107 4.5031 10.1359 4.25686 10.0491C3.12414 9.63693 1.97735 9.24643 0.837594 8.8487C0.816488 8.84147 0.788345 8.84147 0.767239 8.827C0.394356 8.68237 0.0144374 8.50159 0.000366322 8.03877C-0.0137047 7.58319 0.380285 7.44579 0.71799 7.30839C6.02981 5.16064 11.3416 3.02013 16.6535 0.879608C16.8927 0.785598 17.1459 0.713284 17.3992 0.691589C17.8284 0.655432 18.0676 0.93746 17.9832 1.37135C17.35 4.67613 16.7097 7.98092 16.0695 11.2785C15.7811 12.7682 15.4926 14.2506 15.2041 15.7331C15.0212 16.6659 14.1981 16.9769 13.4523 16.3911C11.5175 14.8725 9.58275 13.3467 7.64798 11.8208C7.47913 11.6834 7.29621 11.5388 7.06403 11.358Z" fill="#2770F1"/>
</svg>
