<svg width="24" height="25" viewBox="0 0 24 25" fill="none" xmlns="http://www.w3.org/2000/svg">
<path d="M13.2458 14.72C11.7999 14.0161 10.7107 12.918 9.79062 11.6228C9.86413 11.5232 9.93765 11.4273 10.0098 11.3331C10.2233 11.0543 10.4249 10.7912 10.5793 10.4965C10.692 10.2807 10.7295 9.96158 10.6544 9.74572C10.3727 8.96673 10.0535 8.20651 9.68734 7.46507C9.57467 7.23982 9.27422 6.94887 9.04889 6.93949C8.24143 6.91133 7.26498 7.08027 6.76736 7.94373C6.18524 8.95735 6.02563 10.0461 6.48569 11.0972C6.89881 12.0264 7.44337 12.918 8.04426 13.7439C9.47139 15.6867 11.3116 17.0851 13.6683 17.7421C14.4476 17.9579 15.2362 18.155 16.0625 17.9861C17.3394 17.7327 18.2313 16.7566 18.3252 15.4708C18.3534 15.0578 18.2313 14.7481 17.8276 14.5604C17.3746 14.3546 16.9253 14.1414 16.475 13.9277C16.2067 13.8004 15.9381 13.673 15.6681 13.5468C15.2268 13.3497 14.8513 13.4154 14.5602 13.8284C14.4807 13.9413 14.3919 14.0486 14.3029 14.1561C14.1922 14.29 14.0812 14.4241 13.9875 14.5698C13.7809 14.8795 13.565 14.8795 13.2458 14.72Z" fill="#2770F1"/>
<path fill-rule="evenodd" clip-rule="evenodd" d="M6.92698 22.9322C8.57945 23.7206 10.307 24.1241 12.1379 24.1992C12.4027 24.1645 12.6685 24.1352 12.9347 24.1058C13.4614 24.0476 13.9894 23.9892 14.5133 23.8895C20.5692 22.7632 24.7942 16.8223 23.8741 10.7312C22.8695 4.10509 16.4756 -0.390506 9.90329 0.914063C2.06348 2.47204 -1.955 10.9564 1.7912 18.0142C1.89448 18.2113 1.91326 18.5023 1.84754 18.7088C1.47769 19.8414 1.09683 20.9703 0.716428 22.0978C0.48845 22.7736 0.260638 23.4489 0.0354626 24.1241C-0.0114823 24.2743 -0.0208708 24.5371 0.0636299 24.6215C0.148131 24.7154 0.401633 24.6966 0.561246 24.6497C1.37714 24.3969 2.19127 24.1387 3.00516 23.8807C4.06445 23.5448 5.12335 23.209 6.18525 22.8853C6.41059 22.8102 6.72043 22.8289 6.92698 22.9322ZM4.54535 20.8258C4.25106 20.918 3.95028 21.0123 3.64084 21.1114C3.75038 20.7892 3.85366 20.4794 3.95416 20.1781C4.15515 19.5753 4.34501 19.0059 4.55157 18.4366C4.66424 18.1269 4.61729 17.8828 4.4389 17.6107C2.16676 14.1944 2.28882 10.0742 4.75813 6.80808C8.14755 2.3031 15.0015 1.89014 18.8979 6.00094C21.3954 8.64762 22.2029 11.8011 21.048 15.2643C19.8744 18.7932 17.33 20.8955 13.6683 21.5525C11.4337 21.9561 9.32118 21.5244 7.36827 20.3512C7.02087 20.1447 6.72043 20.1072 6.35425 20.2386C5.76686 20.4428 5.17078 20.6297 4.54535 20.8258Z" fill="#2770F1"/>
</svg>
