<svg width="15" height="31" viewBox="0 0 15 31" fill="none" xmlns="http://www.w3.org/2000/svg">
<path d="M0 17.0216C0 15.2267 0 13.5022 0 11.6956C1.4717 11.6956 2.90943 11.6956 4.42641 11.6956C4.42641 11.3672 4.41509 11.0973 4.42641 10.8393C4.4717 9.19688 4.35849 7.53105 4.60755 5.92387C5.08302 2.80337 7.36981 0.820792 10.4717 0.70348C11.966 0.644824 13.4717 0.773868 15 0.820792C15 2.48663 15 4.03515 15 5.67752C14.6604 5.67752 14.3321 5.67752 14.0038 5.67752C13.2453 5.68925 12.4981 5.68925 11.7396 5.72444C10.5623 5.7831 9.86038 6.38139 9.79245 7.57797C9.71321 8.91533 9.76981 10.2644 9.76981 11.6839C11.4566 11.6839 13.1208 11.6839 14.8415 11.6839C14.6151 13.4905 14.4 15.2267 14.1736 16.9981C12.7019 16.9981 11.2755 16.9981 9.76981 16.9981C9.76981 21.585 9.76981 26.1133 9.76981 30.6885C7.96981 30.6885 6.23773 30.6885 4.42641 30.6885C4.42641 26.1485 4.42641 21.6202 4.42641 17.0216C2.92075 17.0216 1.48302 17.0216 0 17.0216Z" fill="#2770F1"/>
</svg>
